<svg id="Layer_1" data-name="Layer 1" xmlns="http://www.w3.org/2000/svg" viewBox="0 0 278.8 329.89">
    <path d="M286.4,135a20.4,20.4,0,1,0-40.8,0v85a20.4,20.4,0,1,0,40.8,0Z"
        transform="translate(-7.6 -7.51)" fill="#79c257" />
    <path d="M48.4,135a20.4,20.4,0,0,0-40.8,0v85a20.4,20.4,0,0,0,40.8,0Z"
        transform="translate(-7.6 -7.51)" fill="#79c257" />
    <path
        d="M191.62,37.78l14.39-26a2.9,2.9,0,0,0-1.13-3.94,2.86,2.86,0,0,0-1.4-.36A2.9,2.9,0,0,0,200.94,9L186.38,35.25a98.11,98.11,0,0,0-78.76,0L93.06,9A2.9,2.9,0,1,0,88,11.81l14.39,26C74.73,52.17,56,79.52,56,110.9H238C238,79.52,219.27,52.17,191.62,37.78ZM105,77.6a7.6,7.6,0,1,1,7.6-7.6A7.61,7.61,0,0,1,105,77.6Zm84,0a7.6,7.6,0,1,1,7.6-7.6A7.61,7.61,0,0,1,189,77.6Z"
        transform="translate(-7.6 -7.51)" fill="#79c257" />
    <path
        d="M56,118.1V250a22,22,0,0,0,22,22H92.6v45a20.4,20.4,0,0,0,40.8,0V272h27.2v45a20.4,20.4,0,0,0,40.8,0V272H216a22,22,0,0,0,22-22V118.1Z"
        transform="translate(-7.6 -7.51)" fill="#79c257" />
</svg>