<?xml version="1.0" encoding="utf-8"?><!-- Generator: Adobe Illustrator 26.0.2, SVG Export Plug-In . SVG Version: 6.00 Build 0)  -->
<svg version="1.1" id="Layer_1" xmlns="http://www.w3.org/2000/svg"
    xmlns:xlink="http://www.w3.org/1999/xlink" x="0px" y="0px" viewBox="0 0 500 500"
    style="enable-background:new 0 0 500 500;" xml:space="preserve">
<path d="M150,30C83.8,30,30,83.8,30,150v200c0,66.2,53.8,120,120,120h200c66.2,0,120-53.8,120-120V150c0-66.2-53.8-120-120-120H150z
	 M150,50h200c55.3,0,100,44.7,100,100v200c0,55.3-44.7,100-100,100H150c-55.3,0-100-44.7-100-100V150C50,94.7,94.7,50,150,50z
	 M116.2,180.7c-7,0-12.2,5-12.2,11.6c0,6.5,5.2,11.5,12.2,11.5s12.2-5,12.2-11.5C128.4,185.7,123.2,180.7,116.2,180.7z M220.4,186.4
	c-36.4,0-59.2,25.5-59.2,66.4s22.4,66.5,59.2,66.5c36.7,0,59.1-25.7,59.1-66.5C279.4,211.9,256.9,186.4,220.4,186.4z M349.7,186.4
	c-27.7,0-46.2,15-46.2,37.6c0,18.6,10.5,29.7,33.4,35.1l16.3,4c16.8,4,24.2,9.7,24.2,19.4c0,11.2-11.6,19.4-27.4,19.4
	c-17,0-28.7-7.6-30.4-19.7h-19.5c1.4,22.7,20.3,37.2,48.4,37.2c30.1,0,48.9-15.2,48.9-39.5c0-19.1-10.7-29.6-36.7-35.7l-14-3.4
	c-16.5-3.9-23.2-9.1-23.2-18.1c0-11.4,10.4-18.9,25.9-18.9c14.8,0,24.9,7.3,26.8,19h19.2C394.2,201.4,375.4,186.4,349.7,186.4z
	 M220.4,204.7c24.1,0,38.9,18.6,38.9,48.1c0,29.3-14.9,48.2-38.9,48.2c-24.3,0-39.1-18.9-39.1-48.2
	C181.3,223.4,196.5,204.7,220.4,204.7z M106.8,220.6v95.7h18.8v-95.7L106.8,220.6L106.8,220.6z" />
</svg>
