<?xml version="1.0" encoding="utf-8"?><!-- Generator: Adobe Illustrator 26.0.2, SVG Export Plug-In . SVG Version: 6.00 Build 0)  -->
<svg version="1.1" id="Layer_1" xmlns="http://www.w3.org/2000/svg"
    xmlns:xlink="http://www.w3.org/1999/xlink" x="0px" y="0px" viewBox="0 0 400 483.7"
    style="enable-background:new 0 0 400 483.7;" xml:space="preserve">
<path d="M400,406.7c-3.2-6.2-5.5-13.3-9.9-18.5c-6-7.2-10.1-15.8-11.8-25c-2.2-11-5.7-21.3-17.5-25.8c0.3-1.3,0.5-2.1,0.7-2.9
	c5.7-18.7,5.3-37.5,0.5-56.3c-5.6-21.9-15.8-41.7-28.9-59.9c-10.7-14.8-22.4-29-33.4-43.6c-12.7-16.9-19.5-35.7-18.1-57.2
	c0.5-8.2,0.2-16.5,0-24.7c-0.5-17.2-2.3-34.3-8.3-50.6c-8.2-22.3-23.6-36.6-47.3-40.6c-15.5-2.7-31.4-1.7-46.4,2.9
	c-19.9,6.1-33.4,19.1-39.5,39c-2.6,8.5-4.6,17.4-4.8,26.3c-0.4,16.9,0.6,33.8,1,50.6c0.6,26.5-6.7,50.5-23.4,71.3
	c-15.3,19-29.5,38.6-40.5,60.4c-12.2,24.1-21.3,49-18.3,76.8c0,1.2-0.4,2.4-1.2,3.4c-3.4,4.5-7.2,8.8-10.5,13.4
	c-3.3,4.6-8,8.1-13.4,10c-4.6,1.5-9.1,3.3-13.4,5.5c-9,4.9-13.4,12.8-13,23.2c0.1,3.1,0.5,6.2,1,9.3c1.7,9.4,2.5,18.8-1.5,28
	c-0.8,2.1-1.3,4.3-1.5,6.6c-2,15,3.2,23,17.9,26.6c6.5,1.5,13.1,2.5,19.7,3.1c15.5,1.7,30.4,4.9,44.7,11.8
	c8.6,4.1,17.7,6.8,27.2,8.1c17.7,2.5,33.8-0.9,43.9-18c0.8-0.9,1.8-1.5,3-1.7c5.2-0.9,10.4-1.4,15.6-2.4c15.3-2.8,30.5-5.1,46.1-2.8
	c10.3,1.5,20.9,1.9,31.3,3c1.4,0.2,2.6,1.1,3.3,2.3c8.3,21.7,29.2,30.6,52,23c12.8-4.2,23.1-12.1,31.8-22.1
	c6.5-7.6,14.4-13.8,23.2-18.4c8.2-4.3,16.5-8.3,24.6-12.7c7.3-3.9,13.4-9,15.3-17.7L400,406.7z M206.8,72.2
	c7.9-7.1,18.2-7.2,26.4-0.5c8.6,6.9,12.6,20.5,10.9,32.4c-0.7,5.4-2.6,10.4-5.7,14.3c-0.9,0.9-2.2,1.3-3.4,1.1
	c-3.2-1-6.3-2.5-9.7-3.9c0,0,0,0,0,0c5-5.6,5.8-11.9,4.5-18.5c-0.1-0.6-0.2-1.1-0.4-1.7c-1.5-6-5.1-9.7-9.3-9.8s-8.3,3.5-10.2,9.5
	c-0.6,1.9-0.9,3.9-1.1,5.8c0,0.1,0,0.1,0,0.2c-0.1,1.8,0,3.5,0,5.7c0,0,0,0,0,0c0,0,0,0,0,0.1c-3.9-1.2-7.2-2.1-10.5-3.4
	c-1.1-0.6-1.8-1.6-2-2.8c-0.1-1.4-0.1-2.7-0.1-4.1C196.4,87.3,199.4,78.8,206.8,72.2z M147.7,81.4c1.4-2.8,3.4-5.2,5.8-7.2
	c3-2.6,6.8-3.3,10.4-2.3c1.2,0.3,2.4,0.8,3.5,1.5c7.4,4.6,13.8,19.8,11.6,28.2c-0.4,1-1.1,1.8-2.1,2.3c-2.2,1.1-4.4,1.9-6.8,2.9
	c-0.5-2.1-0.9-4.1-1.4-6.1c-0.3-1.1-0.5-2.2-0.8-3.3c-0.3-0.9-0.5-1.8-0.9-2.7c-0.8-2.2-2.1-4.3-4.3-5.1c-0.7-0.3-1.5-0.4-2.4-0.3
	c-3.7,0.3-5.1,3.3-5.9,6.5c-1.9,7.4-0.8,14.3,4.6,20.6l-6.1,4.6c0,0,0,0,0,0l0,0c-1-1.1-2-2.2-2.9-3.4
	C143,105.9,142.1,93.8,147.7,81.4z M147.9,129.2c6.8-5.5,13.7-11,20.6-16.5c5.6-4.7,12.7-7.2,20-7.1l0.4-1.1
	c6.1,2.2,12.3,4.1,18.3,6.5c7.3,3,14.4,6.5,21.7,9.8c1.5,0.7,3.2,1.3,4.7,1.9c13.1,5.7,15,15.8,4.5,25.4c-3.3,3-7.4,5.2-11.3,7.4
	c-6.2,3.4-12.4,6.8-18.9,9.7c-5.2,2.4-10.7,4.8-16.2,5.8c-8,1.5-15.4-0.9-21.8-6.3c-5.1-4.3-10.7-7.9-15.7-12.3
	c-3.5-2.9-6.5-6.2-9-10C142,137.5,143.4,132.9,147.9,129.2z M122.9,471.8c-2.1,0.2-4.2,0.2-6.4,0.4c-10.6-0.4-20.8-2.6-30-7.5
	c-15.8-8.4-32.7-11.8-50.2-13.5c-6.1-0.5-12.1-1.5-18-3c-9.7-2.4-13.2-8.1-11.9-18c0.3-3.1,1-6.2,2.1-9.1c3.3-8.3,3.1-16.6,1.6-25.1
	c-0.8-4.5-1.2-9-1.3-13.5c-0.2-7.5,3.5-13.1,10.2-16.4c3.9-1.8,7.8-3.3,11.9-4.6c6.4-2.1,11.9-6.2,15.9-11.6c3-4.1,6-8.3,9.4-12.1
	c7.5-8.6,17.4-10,26.5-3.2c4.9,3.6,9,8.1,12.3,13.3c6.6,10.7,11.8,22.3,18.5,33c5.8,9.4,12.9,17.9,19.4,26.9c4.7,6.6,9.8,13,13.7,20
	C158.5,449.2,147.3,469.7,122.9,471.8z M256.4,414.7c-23.9,16-49.7,24.2-78.6,17.8c-4.4-1.1-8.8-2.5-13-4.1
	c-9.6-3.2-17.7-10-22.7-18.9c-1.5-2.5-3.5-4.7-5.7-7.5c2.6-0.5,4.6-0.9,6.6-1.4c7-1.9,10.5-7.4,9.4-14.5c-1-6.8-4.6-12.5-8.7-17.8
	c-8-10.2-18-18.1-28.7-25.2c-2-1.4-4.1-2.6-6.1-3.9c-21.4-13.8-29.4-32.6-24.6-57.7c3.5-18.7,12-35.4,21.5-51.6
	c1.5-2.4,3-4.9,4.5-7.3c0.1-0.2,0.4-0.2,1.7-0.9c-0.9,2.3-1.3,4-2,5.5c-3.3,6.7-7,13.3-10.1,20.2c-7.1,15.3-11.7,31.1-9.2,48.3
	c1.1,8.3,4.4,16.2,9.5,22.9c0.8-18.9,4.9-37.6,12.1-55.1c5-11.9,10.7-23.5,16-35.3c8.9-19.9,17-40,20.8-61.6
	c0.7-3.7,1.1-7.5,1.8-12.3c4.5,3.4,8.8,6.1,12.5,9.4c15.5,13.6,29.2,14.8,47,4.4c5.8-3.4,12.2-6,18.1-9.4c5.6-3.2,10.8-7,16.4-10.6
	c0.4,1.2,0.9,3,1.5,4.9c9.4,31.7,21.9,62.5,37.3,91.8c8,15.2,13.9,31.5,17.3,48.4c0.8,3.8,2.1,5.5,5.9,5.3c1.8,0.1,3.6,0.3,5.3,0.7
	c4-9.6,4.6-19.4,3.1-29.3c-2.9-19.3-11.4-36.1-24.9-50.3c-1.5-1.6-2.8-3.5-4.2-5.3l0.9-0.9c0.8,0.3,1.6,0.7,2.3,1.2
	c19.9,20.2,33.1,43.5,33.9,72.6c0,4.1-0.4,8.2-1.2,12.3c-0.5,2.5,0.4,3.3,2.4,4.5c6.8,4,13.8,7.9,20.1,12.7
	c5.1,3.5,7.7,9.7,6.7,15.8c-0.3,2.5-1.3,4-4.4,2.7c1.7-8.6-3.4-13.6-9.8-17.6c-8.6-5.4-17.6-9.8-27.8-11.2
	c-11.5-1.6-17.4,2.6-20,13.9c-0.3,1.4-1.3,2.7-2.5,3.4c-8.9,4-15.2,12.2-16.9,21.8c-2.5,12.7-3.2,25.9-5.3,38.7
	c-1.5,9.5-4,18.8-6.1,28.2C258.1,413.1,257.4,414.1,256.4,414.7z M381,422.8c-6.3,3.5-12.9,6.5-19.4,9.7
	c-11.4,5.5-21.6,13.3-29.9,22.9c-9.4,10.9-20.9,18.8-35.3,21.6c-22.9,4.4-41.1-12.6-38.1-35.7c0.7-6.2,2-12.3,3.8-18.3
	c6-18.4,9.5-37.5,10.3-56.8c0.3-7.4,2.3-14.8,4.3-22.1c1.6-6.3,5.9-11.6,11.8-14.5c0.9,3.8,1.5,7.2,2.5,10.3
	c5,15.6,16.4,21.4,31.5,15.3c6-2.5,11.6-5.9,16.6-10c2.9-2.5,6.5-3.8,10.3-3.6c11.3,0.2,17.4,4.5,20.9,15.2c0.4,1.1,0.8,2.2,1,3.3
	c2.1,13,7.5,24.2,16,34.6C397.6,407.5,395.5,414.8,381,422.8z" />
    <path d="M150.7,134.5c1.2,1.6,2.4,3.2,3.8,4.6c18.5,18.6,32.4,18.7,50.2,10.5c9.3-4.3,18-9.6,25.1-17.1c0.8-0.6,1.7-1.1,2.6-1.5
	l1,0.9c-0.8,1.4-1.8,2.8-2.9,4c-10.5,9.6-23.2,16.5-37,20.1c-10.8,2.9-20.9,0.2-29.9-6c-4.1-3-8.1-6.3-11.7-9.8
	c-1.3-1.2-1.8-3.1-2.7-4.7L150.7,134.5z" />
    <path d="M181.8,115.3c-2.6,0.6-4.6,4-7.9,1.9l-0.4-1.6l7.9-2.2L181.8,115.3z" />
    <path d="M201.5,118l-7.7-2.3c2.3-3,4.7-2.6,8.1,0.7L201.5,118z" />
</svg>
