<svg id="Layer_1" data-name="Layer 1" xmlns="http://www.w3.org/2000/svg" viewBox="0 0 396.8 470.05">
    <path
        d="M441.45,173.19c-36.75,22.44-55.4,54.17-52.35,97.05s27.15,71,65.3,89.84c-5.29,12.06-10.2,24.48-16.08,36.41-11.07,22.45-25.72,42.56-42.26,61.26-8.12,9.18-17.43,16.93-28.79,22-14.2,6.3-28.63,5.78-43,1.31-9.6-3-19-6.79-28.5-10-23.48-7.85-46.57-5.88-69.47,2.78-9,3.4-18.11,6.58-27.37,9.16-16.73,4.66-32.08,1.13-46-9-13.49-9.77-24-22.4-34.1-35.41-28.26-36.26-46.62-77.08-55.84-122-6.69-32.61-8-65.36,1.66-97.63,12-40.12,36.47-69.47,76.26-84.63,25.15-9.59,50.34-8.81,75.46.65,10.86,4.09,21.93,7.58,32.91,11.32a28.65,28.65,0,0,0,19.31-.1c13.43-4.7,26.89-9.32,40.44-13.66,12.78-4.1,25.87-7,39.39-6.32C381,128,410.2,137.91,432.88,162.79,435.82,166,438.45,169.52,441.45,173.19Z"
        transform="translate(-57.6 -14.98)" />
    <path
        d="M354.38,15c1.41,14.88-.14,29.07-5.73,42.55-11.84,28.57-31.23,50.22-59.69,63.09a65.84,65.84,0,0,1-28.17,5.51c-4.59,0-4.6,0-4.83-4.78a89.32,89.32,0,0,1,9.64-44.48c17.16-34.56,45.07-54.76,82.89-61.55a29.93,29.93,0,0,1,3.27-.33C352.52,15,353.28,15,354.38,15Z"
        transform="translate(-57.6 -14.98)" />
</svg>