<svg id="Layer_1" data-name="Layer 1" xmlns="http://www.w3.org/2000/svg"
    viewBox="0 0 461.84 461.93">
    <path
        d="M243.85,481.15h-219V262.09c.89.06,1.78.17,2.68.17h213c3.64,0,3.21-.28,3.21,3.17q0,106.43,0,212.84C243.71,479.23,243.8,480.19,243.85,481.15Z"
        transform="translate(-24.84 -19.22)" fill="#3477ce" />
    <path
        d="M24.84,237.91V19.22c.89.05,1.79.15,2.68.15H240.9c3,0,2.81-.22,2.81,2.84V234.91c0,3,.23,2.83-2.82,2.83H27.52C26.63,237.75,25.73,237.86,24.84,237.91Z"
        transform="translate(-24.84 -19.22)" fill="#3477ce" />
    <path
        d="M486.68,481.15H268.39c0-1,0-2,0-3.07V265.34c0-3.29-.19-3.07,3-3.07H483.59c3.28,0,2.93-.14,2.93,2.91q0,106.63,0,213.28C486.53,479.36,486.63,480.25,486.68,481.15Z"
        transform="translate(-24.84 -19.22)" fill="#3477ce" />
    <path
        d="M486.52,128.58V22c0-2.68.13-2.58-2.54-2.58H271.13c-2.69,0-2.7,0-2.7,2.63V235.08c0,2.66,0,2.66,2.67,2.66H484c2.57,0,2.57,0,2.57-2.54Z"
        transform="translate(-24.84 -19.22)" fill="#3477ce" />
    <path
        d="M486.52,128.58V235.2c0,2.54,0,2.54-2.57,2.54H271.1c-2.67,0-2.67,0-2.67-2.66V22c0-2.63,0-2.63,2.7-2.63H484c2.67,0,2.54-.1,2.54,2.58Z"
        transform="translate(-24.84 -19.22)" fill="#3477ce" />
</svg>