<svg id="Layer_1" data-name="Layer 1" xmlns="http://www.w3.org/2000/svg"
    viewBox="0 0 442.87 459.86">
    <path
        d="M133.36,190l8.76-44.47a272.45,272.45,0,0,1-58-23.68c-.72.86-1.42,1.64-2,2.48a205.88,205.88,0,0,0-32.18,62.43c-.78,2.5-1.79,3.43-4.47,3.32-5.61-.24-11.24-.08-16.92-.08C45.59,116.54,117.5,30.7,229.2,21,351.64,10.31,446.59,94.45,471.16,190H457.6a25,25,0,0,0-3.57,0c-2.61.39-3.72-.65-4.52-3.21a205.65,205.65,0,0,0-32.16-62.44c-.58-.77-1.2-1.51-2-2.53a272.94,272.94,0,0,1-58.11,23.66c2.91,14.75,5.77,29.27,8.71,44.2H345.52c-2.63-12.78-5.27-25.67-8-39.11a415.06,415.06,0,0,1-77.74,9.05v30.13H239.88V159.74a415.7,415.7,0,0,1-77.75-9.12c-1.62,7.13-3.27,13.94-4.69,20.8-1.1,5.3-1.83,10.69-2.92,16-.2,1-1.31,2.48-2.05,2.5C146.43,190.11,140.38,190,133.36,190Zm34.9-58.67a373.29,373.29,0,0,0,71.17,8.28V41.12c-3.06,1-5.76,1.77-8.32,2.85-13.4,5.61-23.55,15.25-32.31,26.5-13.82,17.75-23,37.93-30.27,59.05A12,12,0,0,0,168.26,131.36Zm91.48,8c11,1.46,62.71-4.65,71.71-8.55-2.71-6.91-5.24-13.93-8.18-20.77-7.94-18.44-17.73-35.75-32-50.1-8-8-17-14.44-28-17.71-1.07-.32-2.18-.5-3.49-.8Zm91.47-12.94c17.74-5.11,34.63-11.34,51-20.16-26.15-27.48-57-46.47-93-57.12C329.17,71.53,341.63,98,351.21,126.38ZM190,49.15a206.88,206.88,0,0,0-92.91,57.1,253.69,253.69,0,0,0,50.19,19.86c6.09-13.76,11.65-27.29,18-40.42A165.33,165.33,0,0,1,190,49.15Z"
        transform="translate(-28.29 -20.06)" />
    <path
        d="M28.29,310c6.44,0,12.8-.09,19.15.12.75,0,1.79,1.6,2.12,2.64a207.49,207.49,0,0,0,22.61,48.51c3.66,5.73,7.64,11.25,11.58,17,18.82-10.53,38.36-18,58.36-23.88-2.92-14.84-5.78-29.36-8.7-44.22H153.8c2.68,13,5.35,25.91,8.09,39.21a413.51,413.51,0,0,1,77.84-9.08V310.14H259.6v30.15a411.91,411.91,0,0,1,77.84,9.11c2.75-13.3,5.42-26.21,8.11-39.25h20.39c-2.93,14.85-5.78,29.36-8.71,44.22,20,5.86,39.53,13.33,58.22,23.84,2.86-4,5.71-7.8,8.36-11.73a203.67,203.67,0,0,0,25.74-53.43c.74-2.38,1.74-3.24,4.27-3.15,5.7.21,11.42.07,17.21.07C450,395.41,366.67,478.86,251.81,479.91,135.89,481,50.14,397.74,28.29,310ZM239.55,458.86V360.8c-8.85-1.89-64.45,4.66-71.23,8.37a4.15,4.15,0,0,0,.11.93c7.29,21.36,16.56,41.72,30.53,59.62,8.63,11.07,18.65,20.56,31.79,26.13C233.48,457,236.37,457.79,239.55,458.86Zm20.29-98.52v98a7,7,0,0,0,1.48,0c1.25-.33,2.5-.67,3.73-1.1,15-5.26,26.07-15.6,35.58-27.84,13.81-17.74,22.95-37.93,30.22-59.06a8.6,8.6,0,0,0,.17-1.73A376.18,376.18,0,0,0,259.84,360.34ZM190,450.83c-19.94-22.49-32.33-49-41.87-77.21-17.76,5.07-34.61,11.33-51,20.12C123.25,421.21,154,440.19,190,450.83Zm161.22-77.22c-9.57,28.36-22,54.77-41.87,77.22,36-10.63,66.73-29.61,92.89-57.08C385.86,385,369,378.7,351.22,373.61Z"
        transform="translate(-28.29 -20.06)" />
    <path
        d="M431.38,265.64c2.24-7.63,4.23-14.35,6.2-21.07,3.1-10.61,6.24-21.21,9.27-31.84.55-2,1.39-2.8,3.55-2.75,6.14.15,12.29.05,18.85.05-.46,1.58-.75,2.7-1.11,3.8-7.84,24.23-15.72,48.45-23.46,72.71-.83,2.61-1.93,3.62-4.73,3.5-5.41-.24-10.83-.19-16.24,0-2.35.07-3.4-.73-4.17-2.95-6.25-17.91-12.64-35.76-19-53.63-.25-.71-.55-1.41-1.11-2.83-.65,1.59-1.11,2.58-1.47,3.6-6.27,17.67-12.57,35.33-18.74,53-.74,2.13-1.73,2.83-3.93,2.78-5.95-.15-11.91-.1-17.87,0-1.72,0-2.7-.35-3.3-2.22q-12-38.13-24.23-76.22a10.94,10.94,0,0,1-.14-1.52H342.3c9.13,0,9.14,0,11.69,8.71q6.08,20.76,12.15,41.5c.35,1.21.78,2.41,1.44,4.43,1.6-4.45,2.93-8.08,4.22-11.72,4.76-13.37,9.55-26.74,14.2-40.15.73-2.09,1.67-2.87,3.91-2.82q9.9.22,19.82,0c2.22,0,3.19.66,3.9,2.81,5.3,16.17,10.74,32.29,16.14,48.42C430.17,262.41,430.63,263.59,431.38,265.64Z"
        transform="translate(-28.29 -20.06)" />
    <path
        d="M319.39,210l-9.09,28.13c-5.25,16.29-10.55,32.58-15.7,48.91-.72,2.28-1.77,3-4.1,2.95q-8.28-.24-16.57,0c-2.32.06-3.39-.66-4.17-2.92-6.12-17.6-12.39-35.16-18.62-52.73-.35-1-.75-2-1.44-3.81-.67,1.72-1.11,2.73-1.47,3.78-6.22,17.57-12.47,35.13-18.57,52.75-.78,2.23-1.82,3-4.15,2.93-5.95-.16-11.92,0-17.87-.15a3.87,3.87,0,0,1-2.9-2.07q-12.3-38.22-24.35-76.52a6.84,6.84,0,0,1,0-1.25c3.25,0,6.53-.05,9.8,0,3.88.07,8.72-1.1,11.33.79s2.61,6.79,3.67,10.42q5.72,19.5,11.37,39c.35,1.2.77,2.38,1.43,4.41,1.87-5.26,3.44-9.62,5-14,4.45-12.57,8.94-25.12,13.28-37.72.75-2.19,1.74-3.07,4.13-3,6.5.16,13,.17,19.5,0,2.42-.06,3.34.87,4.06,3.05,5.29,16.17,10.71,32.3,16.1,48.44.34,1,.71,2,1.41,4.06.65-2,1.05-3.08,1.39-4.22,4.71-16.12,9.46-32.23,14.08-48.38.61-2.14,1.44-3,3.75-2.94C306.7,210.14,312.76,210,319.39,210Z"
        transform="translate(-28.29 -20.06)" />
    <path
        d="M30.34,210.06c6.88,0,13.57-.09,20.25.12.74,0,1.78,1.63,2.09,2.68,4.63,15.58,9.15,31.19,13.71,46.8.41,1.43.89,2.84,1.56,4.95.7-1.86,1.18-3.05,1.61-4.25,5.61-15.83,11.25-31.66,16.77-47.52.71-2.06,1.6-2.92,3.88-2.86q9.9.24,19.82,0c2.27-.06,3.15.78,3.84,2.87,5.29,16.16,10.72,32.29,16.11,48.43.37,1.1.75,2.2,1.41,4.13.61-1.68,1-2.59,1.27-3.52,4.78-16.33,9.58-32.65,14.26-49,.61-2.14,1.49-3,3.78-2.9,6,.16,12.08.05,18.57.05-.4,1.46-.65,2.47-1,3.46-7.88,24.45-15.81,48.88-23.61,73.34-.75,2.35-1.72,3.29-4.26,3.2-5.52-.2-11.05-.19-16.57,0-2.4.08-3.36-.84-4.12-3-6.2-17.8-12.53-35.57-18.83-53.34-.28-.81-.63-1.6-1.22-3.09-.66,1.72-1.14,2.85-1.54,4C92,252.06,85.76,269.52,79.68,287c-.76,2.19-1.73,3.08-4.12,3-6-.18-11.91,0-17.86-.16a3.9,3.9,0,0,1-3-2Q42.55,249.94,30.6,212A11.57,11.57,0,0,1,30.34,210.06Z"
        transform="translate(-28.29 -20.06)" />
</svg>