<svg xmlns="http://www.w3.org/2000/svg" viewBox="0 0 589.79 134.19">
    <path
        d="M336.89,54.17v40.6c0,9.29-2.06,18.06-7.32,25.8-8,11.84-19.18,18.36-33.58,18.9a46.13,46.13,0,0,1-18.84-3.17,40.65,40.65,0,0,1-13.58-9.06,66.63,66.63,0,0,1-13.43-19.65c-4.63-9.92-8.43-20.2-12.66-30.32Q232.41,65.15,227.36,53A31.17,31.17,0,0,0,223,45.27a7.05,7.05,0,0,0-9.9-1.26,7.76,7.76,0,0,0-.8.72,6.56,6.56,0,0,0-1.55,3.1,17.27,17.27,0,0,0-.27,3.73v83.31c0,3.38.33,3.14-3.19,3.14H174.89a1,1,0,0,1-1.14-.77.81.81,0,0,1,0-.38V69c0-7.2-.31-14.4.05-21.58C174.39,35.73,178.37,25.29,187,17A40.73,40.73,0,0,1,219.36,5.5c9.83.7,18.58,4,26,10.6a64,64,0,0,1,12.87,16.62c3.78,6.7,6.43,13.9,9.4,21C273.35,67.3,279,81,284.69,94.59A19.62,19.62,0,0,0,286.93,99a7.48,7.48,0,0,0,7.83,3.16,6.18,6.18,0,0,0,5.32-5.7c.06-.78,0-1.57,0-2.35V9.14c0-2.3,0-2.3,2.31-2.31h33.33c.76,0,1.17.31,1.18,1.09s0,1.41,0,2.11Q336.9,32.13,336.89,54.17Z"
        transform="translate(-6.24 -5.32)" style="fill:#fff" />
    <path
        d="M77.27,5.32c17.88.2,33.86,5.7,47.52,17.36,12.14,10.37,19.85,23.41,22.48,39.22A62.26,62.26,0,0,1,142,99.81a67.73,67.73,0,0,1-31.38,31.82,73.13,73.13,0,0,1-45.13,6.93c-18.24-2.77-33.4-11.28-45-25.66A62.31,62.31,0,0,1,6.26,71.81C6.55,51.63,14.82,35.22,30,22.27A70.43,70.43,0,0,1,71.09,5.6,60.59,60.59,0,0,1,77.27,5.32Zm-3,98.57c10.13,0,16.89-1.85,22.93-5.89,8.93-5.9,14.4-14.12,15.25-24.87.92-12.21-4-21.91-13.75-29.17-14.53-10.87-37.46-9.22-50,6.62-7.82,9.85-9.3,23.94-3.17,34.87,6.86,12.26,17.79,17.88,28.7,18.42Z"
        transform="translate(-6.24 -5.32)" style="fill:#fff" />
    <path
        d="M567.74,72.51c2.92,2.64,5.85,5,8.41,7.86C589.11,94.51,596,111,596,130.2v7.07c0,2.38,0,2.22-2.33,2.24H559c-1.89,0-1.93-.06-2-1.89,0-2.5,0-5,0-7.51a36,36,0,0,0-2.81-14.66c-5.48-13-15.15-21.09-28.81-24.34a41.08,41.08,0,0,0-46.73,22.22,36.45,36.45,0,0,0-3.7,15.92v8.24c0,1.92,0,2-1.81,2H437.87c-1,0-1.65-.17-1.67-1.43-.17-10.2,0-20.34,3.37-30.18a75.18,75.18,0,0,1,22.12-33,11,11,0,0,0,2.57-2.44c-.3-.72-.89-1-1.38-1.44-13.13-11.11-21.77-25-25.37-41.89a69,69,0,0,1-1.31-15.9c.05-2.18,0-4.36,0-6.54,0-.9.32-1.38,1.27-1.32H473.1c1.92,0,1.94,0,2,2.09v7.07c-.31,19.19,13.81,36.3,33.72,39.72,13.68,2.35,25.86-1.27,36-10.75A37.9,37.9,0,0,0,557,15.34V7.1c0-1.71.09-1.78,1.79-1.78h35.35c1.18,0,1.76.32,1.78,1.63.13,9.09,0,18.09-2.52,26.91a74.81,74.81,0,0,1-24.11,37l-1.3,1.1A3,3,0,0,0,567.74,72.51Z"
        transform="translate(-6.24 -5.32)" style="fill:#fff" />
    <path
        d="M367.23,72.14V7.19c0-1.83,0-1.87,1.92-1.87h35.14c1.84,0,1.84,0,1.9,1.92V136.17c0,3.77.33,3.32-3.42,3.32H369.34c-2.08,0-2.11,0-2.11-2.17q0-20.82,0-41.67Z"
        transform="translate(-6.24 -5.32)" style="fill:#fff" />
</svg>