<svg xmlns="http://www.w3.org/2000/svg" viewBox="0 0 594.77 145.68">
    <path
        d="M345.14,58.3V99.81c0,9.5-2.11,18.46-7.48,26.38-8.21,12.1-19.61,18.77-34.34,19.32a47.19,47.19,0,0,1-19.26-3.24A41.33,41.33,0,0,1,270.18,133a68.1,68.1,0,0,1-13.74-20.09c-4.73-10.14-8.61-20.65-12.94-31-3.46-8.26-6.89-16.53-10.35-24.79a32,32,0,0,0-4.46-7.92,7.22,7.22,0,0,0-10.94-.56,6.72,6.72,0,0,0-1.59,3.17,18.11,18.11,0,0,0-.28,3.82q0,42.59,0,85.18c0,3.45.34,3.21-3.26,3.21H181.43l-1.92,0a1,1,0,0,1-1.17-1.18c0-.72,0-1.44,0-2.16q0-33.59,0-67.18c0-7.36-.32-14.72.05-22.06.61-12,4.67-22.67,13.52-31.11a41.67,41.67,0,0,1,33.06-11.8c10.05.72,19,4.08,26.57,10.84a65.47,65.47,0,0,1,13.15,17c3.87,6.85,6.58,14.21,9.62,21.42,5.86,13.93,11.64,27.89,17.46,41.83a19.66,19.66,0,0,0,2.29,4.47,7.64,7.64,0,0,0,8,3.23,6.31,6.31,0,0,0,5.44-5.83c.07-.79,0-1.6,0-2.4V12.26c0-2.35,0-2.36,2.37-2.37h32.87c.4,0,.8,0,1.2,0,.78,0,1.2.32,1.21,1.12s0,1.44,0,2.16Q345.15,35.76,345.14,58.3Z"
        transform="translate(-2.9 -4.17)" style="fill:#231f20" />
    <path
        d="M80,4.18c19.41.21,36.76,6.18,51.59,18.84C144.77,34.28,153.14,48.44,156,65.6a67.62,67.62,0,0,1-5.73,41.15,73.55,73.55,0,0,1-34.06,34.55c-15.46,7.84-31.91,10.14-49,7.52-19.8-3-36.26-12.24-48.84-27.85A67.69,67.69,0,0,1,2.91,76.36c.32-21.91,9.29-39.73,25.81-53.78,12.81-10.9,27.8-16.77,44.57-18.1A65.24,65.24,0,0,1,80,4.18Zm-3.29,107c11,0,18.34-2,24.9-6.39,9.69-6.4,15.63-15.33,16.55-27,1-13.26-4.36-23.79-14.93-31.67C87.46,34.32,62.57,36.11,49,53.31,40.51,64,38.9,79.3,45.56,91.17,53,104.48,64.87,110.58,76.71,111.16Z"
        transform="translate(-2.9 -4.17)" style="fill:#231f20" />
    <path
        d="M569.62,75c2.89,2.62,5.79,5,8.33,7.78,12.83,14,19.66,30.29,19.68,49.34,0,2.32,0,4.64,0,7s0,2.2-2.31,2.22c-2.48,0-5,0-7.44,0H561c-1.87-.05-1.91-.06-1.94-1.87q-.06-3.72,0-7.44a35.52,35.52,0,0,0-2.78-14.51c-5.42-12.84-15-20.88-28.52-24.1a40.67,40.67,0,0,0-46.27,22,36,36,0,0,0-3.66,15.76c0,2.72,0,5.44,0,8.16,0,1.9,0,2-1.8,2-11.68,0-23.36,0-35,0-1,0-1.63-.17-1.65-1.42-.17-10.1,0-20.14,3.34-29.88a74.41,74.41,0,0,1,21.9-32.68,10.84,10.84,0,0,0,2.54-2.42c-.29-.71-.88-1-1.36-1.42-13-11-21.56-24.74-25.12-41.48a68.15,68.15,0,0,1-1.3-15.74c.05-2.16,0-4.32,0-6.48,0-.89.32-1.36,1.26-1.3.48,0,1,0,1.44,0h33.84c1.9,0,1.92,0,1.94,2.07,0,2.32,0,4.64,0,7-.31,19,13.67,35.94,33.38,39.32,13.55,2.33,25.61-1.25,35.65-10.64A37.52,37.52,0,0,0,559,18.4c0-2.72,0-5.44,0-8.16,0-1.69.09-1.76,1.78-1.76,11.68,0,23.36,0,35,0,1.17,0,1.74.31,1.76,1.61.13,9,0,17.91-2.5,26.64a74,74,0,0,1-23.87,36.62c-.43.36-.86.72-1.28,1.09A3,3,0,0,0,569.62,75Z"
        transform="translate(-2.9 -4.17)" style="fill:#231f20" />
    <path
        d="M375.06,74.61V12c0-.56,0-1.12,0-1.68.05-1.81.05-1.85,1.91-1.85h34.78c1.82,0,1.82,0,1.88,1.9,0,.4,0,.8,0,1.2V138c0,3.73.33,3.29-3.38,3.29q-15.94,0-31.9,0h-1.2c-2.06,0-2.09,0-2.09-2.15q0-20.62,0-41.25Z"
        transform="translate(-2.9 -4.17)" style="fill:#231f20" />
</svg>