<?xml version="1.0" encoding="utf-8"?><!-- Generator: Adobe Illustrator 26.0.2, SVG Export Plug-In . SVG Version: 6.00 Build 0)  -->
<svg version="1.1" id="Layer_1" xmlns="http://www.w3.org/2000/svg"
    xmlns:xlink="http://www.w3.org/1999/xlink" x="0px" y="0px" viewBox="0 0 600 154"
    enable-background="new 0 0 600 154" xml:space="preserve">
<g>
	<path fill="#231F20" d="M345.14,58.3c0,13.84,0,27.67,0,41.51c0,9.5-2.11,18.46-7.48,26.38c-8.21,12.1-19.61,18.77-34.34,19.32
		c-6.63,0.25-13.06-0.8-19.26-3.24c-5.3-2.09-9.86-5.28-13.88-9.24c-5.89-5.79-10.27-12.66-13.74-20.09
		c-4.73-10.14-8.61-20.65-12.94-30.97c-3.46-8.26-6.89-16.53-10.35-24.79c-1.18-2.81-2.53-5.54-4.46-7.92
		c-2.86-3.51-8.05-3.76-10.94-0.56c-0.83,0.91-1.33,1.98-1.59,3.17c-0.27,1.26-0.28,2.54-0.28,3.82c0,28.39,0.01,56.79,0,85.18
		c0,3.45,0.34,3.21-3.26,3.21c-10.4,0-20.8,0-31.19,0c-0.64,0-1.28-0.01-1.92-0.02c-0.78-0.01-1.17-0.4-1.17-1.18
		c0-0.72-0.01-1.44-0.01-2.16c0-22.39,0.03-44.79-0.02-67.18c-0.02-7.36-0.32-14.72,0.05-22.06c0.61-12.04,4.67-22.67,13.52-31.11
		c9.24-8.81,20.3-12.71,33.06-11.8c10.05,0.72,19,4.08,26.57,10.84c5.43,4.85,9.59,10.69,13.15,16.99
		c3.87,6.85,6.58,14.21,9.62,21.42c5.86,13.93,11.64,27.89,17.46,41.83c0.65,1.55,1.26,3.12,2.29,4.47c2.02,2.64,4.6,3.85,7.96,3.23
		c3.09-0.57,5.15-2.71,5.44-5.83c0.07-0.79,0.04-1.6,0.04-2.4c0-28.31,0-56.63,0-84.94c0-0.64,0-1.28,0-1.92
		c0.02-2.35,0.02-2.36,2.37-2.37c10.96-0.01,21.92,0,32.87,0c0.4,0,0.8,0.02,1.2,0.01c0.78-0.02,1.2,0.32,1.21,1.12
		c0.01,0.72,0.03,1.44,0.03,2.16C345.15,28.23,345.14,43.27,345.14,58.3z" />
    <path fill="#231F20" d="M80,4.18c19.41,0.21,36.76,6.18,51.59,18.84C144.77,34.28,153.14,48.44,156,65.6
		c2.38,14.26,0.53,28.07-5.73,41.15c-7.36,15.4-18.89,26.86-34.06,34.55c-15.46,7.84-31.91,10.14-48.98,7.52
		c-19.8-3.04-36.26-12.24-48.84-27.85C7.96,108.02,2.66,93.11,2.91,76.36c0.32-21.91,9.29-39.73,25.81-53.78
		c12.81-10.9,27.8-16.77,44.57-18.1C75.52,4.3,77.75,4.13,80,4.18z M76.71,111.16c11.03,0.02,18.34-2.05,24.9-6.39
		c9.69-6.4,15.63-15.33,16.55-27.01c1.04-13.26-4.36-23.79-14.93-31.67c-15.77-11.77-40.66-9.98-54.27,7.22
		c-8.45,10.67-10.06,25.99-3.4,37.86C53.03,104.48,64.87,110.58,76.71,111.16z" />
    <path fill="#231F20" d="M569.62,74.98c2.89,2.62,5.79,5.01,8.33,7.78c12.83,13.96,19.66,30.29,19.68,49.34
		c0,2.32,0.01,4.64-0.01,6.96c-0.02,2.19-0.03,2.2-2.31,2.22c-2.48,0.02-4.96,0-7.44,0c-8.48,0-16.96,0-25.44,0
		c-0.48,0-0.96,0.01-1.44,0c-1.87-0.05-1.91-0.06-1.94-1.87c-0.04-2.48-0.04-4.96,0-7.44c0.08-5.03-0.83-9.89-2.78-14.51
		c-5.42-12.84-15.01-20.88-28.52-24.1c-18.8-4.48-37.89,4.63-46.27,22.03c-2.38,4.95-3.66,10.22-3.66,15.76
		c0,2.72,0.02,5.44-0.01,8.16c-0.02,1.9-0.04,1.96-1.8,1.96c-11.68,0.02-23.36,0-35.04,0.02c-1.02,0-1.63-0.17-1.65-1.42
		c-0.17-10.1,0.03-20.14,3.34-29.88c4.38-12.88,11.67-23.75,21.9-32.68c0.89-0.77,1.94-1.4,2.54-2.42
		c-0.29-0.71-0.88-1.01-1.36-1.42c-13-11.03-21.56-24.74-25.12-41.48c-1.1-5.19-1.42-10.45-1.3-15.74c0.05-2.16,0.03-4.32,0.01-6.48
		c-0.01-0.89,0.32-1.36,1.26-1.3c0.48,0.03,0.96,0,1.44,0c11.04,0,22.08,0,33.12,0c0.24,0,0.48,0,0.72,0
		c1.9,0.05,1.92,0.05,1.94,2.07c0.02,2.32,0.04,4.64,0,6.96c-0.31,19.01,13.67,35.94,33.38,39.32c13.55,2.33,25.61-1.25,35.65-10.64
		c7.94-7.44,12.04-16.81,12.2-27.78c0.04-2.72-0.02-5.44,0.02-8.16c0.03-1.69,0.09-1.76,1.78-1.76c11.68-0.02,23.36,0,35.04-0.02
		c1.17,0,1.74,0.31,1.76,1.61c0.13,8.97,0.02,17.91-2.5,26.64c-4.23,14.64-12.27,26.79-23.87,36.62c-0.43,0.36-0.86,0.72-1.28,1.09
		C569.88,74.51,569.82,74.67,569.62,74.98z" />
    <path fill="#231F20" d="M375.06,74.61c0-20.87,0-41.73,0-62.6c0-0.56-0.01-1.12,0-1.68c0.05-1.81,0.05-1.85,1.91-1.85
		c11.59-0.01,23.19-0.01,34.78,0c1.82,0,1.82,0.05,1.88,1.9c0.01,0.4,0,0.8,0,1.2c0,42.13,0,84.27,0,126.4
		c0,3.73,0.33,3.29-3.38,3.29c-10.63,0.02-21.27,0.01-31.9,0.01c-0.4,0-0.8,0.01-1.2,0c-2.06-0.04-2.09-0.04-2.09-2.15
		c-0.01-13.75,0-27.5,0-41.25C375.06,90.12,375.06,82.36,375.06,74.61z" />
</g>
</svg>
